<svg viewBox="0 0 150.1 150.1" version="1.1" xmlns="http://www.w3.org/2000/svg" id="ICONS">
  
  <defs>
    <style>
      .st0, .st1, .st2, .st3, .st4, .st5, .st6 {
        fill: none;
      }

      .st1 {
        stroke-width: .7px;
      }

      .st1, .st2, .st3, .st4, .st5, .st6 {
        stroke: #000;
      }

      .st1, .st3, .st5, .st6 {
        stroke-linecap: round;
      }

      .st1, .st4 {
        stroke-miterlimit: 10;
      }

      .st2 {
        stroke-width: .8px;
      }

      .st3 {
        stroke-width: .6px;
      }

      .st3, .st5, .st6 {
        stroke-linejoin: round;
      }

      .st5 {
        stroke-width: .7px;
      }

      .st6 {
        stroke-dasharray: 0 0 0 0 0 3;
      }
    </style>
  </defs>
  <rect height="149.6" width="149.6" y=".2" x=".2" class="st0"></rect>
  <rect transform="translate(150.1 0) rotate(90)" height="129.6" width="129.6" y="10.2" x="10.2" class="st0"></rect>
  <g>
    <g>
      <g>
        <path d="M81,101l-9.1-.8-6.9-.6c-5.1-.2-18.2-3.3-18.2-3.3l-9-1.4c-6.3-.7-11.2,2.8-11.2,2.8,0-14.2,3.9-19.8,3.9-19.8,6.9-11.8,26-10.6,26-10.6,29.3,5,24.5,33.7,24.5,33.7Z" class="st4"></path>
        <path d="M71.3,100.4s-5.6,9.1-12.8,13c0,0-6.3,2.9-13.3.2,0,0-6.3-3-8.1-4.4,0,0-5.8-4.1-11.8-4.3-.9,0-1.9,0-2.8.3,0,0-3.1.5-5.2,2.5l8.9-9.7s4.9-3.5,11.2-2.8l9,1.4s13.1,3.1,18.2,3.3l6.9.6Z" class="st3"></path>
        <path d="M55.7,67.5s-9.7-.7-14,6.7" class="st3"></path>
        <path d="M55.9,67.6s2.8,1.7,5.2,5.6c1.7,2.7,2.6,5.7,2.9,8.9.3,3.5.8,10.7.4,17.8" class="st3"></path>
        <path d="M56.1,67.5h-6.1v-.7c0-.7.6-1.3,1.3-1.3h3.4c.8,0,1.4.6,1.4,1.4v.7Z" class="st3"></path>
      </g>
      <g>
        <path d="M25.1,104.9h0c-9,12.3-9.8,7-9.8,7,0-1.5.5-2.7,1.2-3.6h0c.2-.2.4-.5.6-.7,2.1-2,5.2-2.5,5.2-2.5.9-.2,1.9-.3,2.8-.3Z" class="st2"></path>
        <g>
          <path d="M81,101l-9.1-.8-6.9-.6c-5.1-.2-18.2-3.3-18.2-3.3l-9-1.4c-6.3-.7-11.2,2.8-11.2,2.8,0-14.2,3.9-19.8,3.9-19.8,6.9-11.8,26-10.6,26-10.6,29.3,5,24.5,33.7,24.5,33.7Z" class="st2"></path>
          <path d="M71.3,100.4s-5.6,9.1-12.8,13c0,0-6.3,2.9-13.3.2,0,0-6.3-3-8.1-4.4,0,0-5.8-4.1-11.8-4.3-.9,0-1.9,0-2.8.3,0,0-3.1.5-5.2,2.5l8.9-9.7s4.9-3.5,11.2-2.8l9,1.4s13.1,3.1,18.2,3.3l6.9.6Z" class="st2"></path>
          <path d="M55.7,67.5s-9.7-.7-14,6.7" class="st2"></path>
          <path d="M55.9,67.6s2.8,1.7,5.2,5.6c1.7,2.7,2.6,5.7,2.9,8.9.3,3.5.8,10.7.4,17.8" class="st2"></path>
          <path d="M56.1,67.5h-6.1v-.7c0-.7.6-1.3,1.3-1.3h3.4c.8,0,1.4.6,1.4,1.4v.7Z" class="st2"></path>
        </g>
      </g>
    </g>
    <path d="M55,65.6c.8,0,1.4.6,1.4,1.4v.4c.2,0,.4,0,.4,0,29.3,5,24.5,33.7,24.5,33.7l-9.1-.8-6.9-.6c-.2,0-.3,0-.5,0,0,0,0,.2,0,.3v-.3c-5.5-.4-17.7-3.3-17.7-3.3l-9-1.4c-.5,0-1.1,0-1.6,0-3,0-5.5.8-7.2,1.6,1.7-.7,4-1.4,6.6-1.4s1,0,1.6,0l9,1.4s13.1,3.1,18.2,3.3l6.9.6s-5.6,9.1-12.8,13c0,0-2.9,1.4-7,1.4s-4.1-.3-6.3-1.2c0,0-6.3-3-8.1-4.4,0,0-5.8-4.1-11.8-4.3h0c-4.8,6.6-7.3,8.1-8.5,8.1s-1.3-1.2-1.3-1.2c0-1.5.5-2.7,1.2-3.6h0c.2-.2.4-.5.6-.7l8.9-9.7s.2-.1.6-.4c.1-14.1,3.9-19.7,3.9-19.7,4.3-7.5,13.5-9.7,19.7-10.4h-.2v-.7c0-.7.6-1.3,1.3-1.3h3.4M55,63.6h-3.4c-1.5,0-2.7,1-3.2,2.3-6.8,1-15.1,3.8-19.4,11.1-.5.8-3.9,6.6-4.2,19.7,0,0,0,0,0,0l-8.8,9.6c-.3.2-.5.5-.7.8,0,0,0,0,0,0-1.1,1.4-1.6,3-1.6,4.8s0,.2,0,.3c.2,1.4,1.4,2.9,3.3,2.9s4.2-.9,9.5-8.1c4.8.5,9.4,3.6,9.7,3.8,2,1.5,7.8,4.3,8.4,4.6,0,0,0,0,.1,0,2.2.9,4.6,1.3,7.1,1.3,4.5,0,7.7-1.5,7.9-1.6,0,0,0,0,0,0,6.5-3.5,11.6-10.6,13.1-12.9l8.4.7c0,0,.1,0,.2,0,1,0,1.8-.7,2-1.7,0-.3,1.3-7.7-1.3-15.9-2.4-7.5-8.4-16.9-23.8-19.9-.5-1.2-1.7-2-3.1-2h0Z"></path>
    <path d="M26.4,76.9s-3.6,11.8-2.8,18.9l-6.6,7.7" class="st1"></path>
    <path d="M46,118.6s6.1,3.4,12.1,1.1" class="st6"></path>
    <g>
      <g>
        <path d="M124,63.1s3.5,1.7,9.2,3.2l5.9,1.6s2.5.9-.1,2.1c0,0-12.6,5.7-37.6,4.8s-4-.3-6-.6c-4.1-.7-10.9-2.1-12.1-4.6" class="st5"></path>
        <path d="M74.7,55.7l.2,10.5s3.4,3.8,14.2,4c0,0,0,0,.1,0,.5-2.2,0-20.6,0-20.6,0-9.5,6-11.8,9.4-12.3h-1.1c-3.9.3-10.4,1.1-15.9,3.7,0,0-7.2,3.4-6.9,14.6Z" class="st5"></path>
        <path d="M89.2,70.2s0,0,0,0c2.6,0,27.1.7,32.6-2.3,0,0,2.4-1.5,2.1-4.3v-13.8s.6-9.8-9.9-11.3l-12-1.2h0s-3.5,0-3.5,0c-3.4.5-9.3,2.7-9.4,12.3,0,0,.4,18.4,0,20.6Z" class="st5"></path>
        <path d="M99.5,37.3c-.3,0-.6,0-.9,0h2.8c-.3,0-.4-.1-.4-.1,0,0-.6,0-1.4,0h0Z" class="st5"></path>
      </g>
      <g>
        <path d="M124,63.1s3.5,1.7,9.2,3.2l5.9,1.6s2.5.9-.1,2.1c0,0-12.6,5.7-37.6,4.8s-4-.3-6-.6c-4.1-.7-10.9-2.1-12.1-4.6" class="st2"></path>
        <path d="M96.7,37.1v.3s5.4,0,5.4,0v-.3c0-.8-.6-1.4-1.4-1.4h-2.5c-.8,0-1.5.7-1.5,1.5Z" class="st2"></path>
        <path d="M74.7,55.7l.2,10.5s3.4,3.8,14.2,4c0,0,0,0,.1,0,.5-2.2,0-20.6,0-20.6,0-9.5,6-11.8,9.4-12.3h-1.1c-3.9.3-10.4,1.1-15.9,3.7,0,0-7.2,3.4-6.9,14.6Z" class="st2"></path>
        <path d="M89.2,70.2s0,0,0,0c2.6,0,27.1.7,32.6-2.3,0,0,2.4-1.5,2.1-4.3v-13.8s.6-9.8-9.9-11.3l-12-1.2h0s-3.5,0-3.5,0c-3.4.5-9.3,2.7-9.4,12.3,0,0,.4,18.4,0,20.6Z" class="st2"></path>
        <path d="M97.5,37.4h4.6s0,0,0,0h-1.2c0-.1-.5-.1-1.4,0h0c-.5,0-1.2,0-2,0Z" class="st2"></path>
        <path d="M99.5,37.3c-.3,0-.6,0-.9,0h2.8c-.3,0-.4-.1-.4-.1,0,0-.6,0-1.4,0h0Z" class="st2"></path>
      </g>
    </g>
    <path d="M101,35.8c.8,0,1.4.6,1.4,1.4v.3l12,1.2c10.5,1.5,9.9,11.3,9.9,11.3v13.3s3.6,1.7,9.2,3.2l5.9,1.6s2.5.9-.1,2.1c0,0-10.8,4.9-32.4,4.9s-3.5,0-5.3,0c-2,0-4-.3-6-.6-4.1-.7-10.9-2.1-12.1-4.6h0c-6.3-1.1-8.4-3.5-8.4-3.5l-.2-10.5c-.3-11.2,6.9-14.6,6.9-14.6,5.5-2.6,11.3-3.4,15.1-3.7h0v-.3c0-.8.7-1.5,1.5-1.5h2.5M101,33.8h-2.5c-1.4,0-2.5.8-3.1,1.9-5.3.5-10.2,1.8-14.4,3.8-.3.2-8.4,4.1-8,16.5l.2,10.5c0,.5.2.9.5,1.3.3.3,2.6,2.7,8.7,3.9,1.1,1.3,4,3.3,13,4.8,2,.3,4.1.5,6.2.6,1.8,0,3.6,0,5.4,0,21.7,0,32.7-4.9,33.2-5.1,0,0,0,0,0,0,1.6-.8,2.4-1.8,2.3-3.1,0-1.4-1.3-2.3-2.4-2.7,0,0,0,0-.1,0l-5.9-1.6c-3.6-.9-6.3-2-7.7-2.6v-12c0-1.2,0-11.6-11.6-13.3,0,0,0,0,0,0l-10.5-1.1c-.6-1.1-1.7-1.9-3.1-1.9h0Z"></path>
    <path d="M114.4,34.3s13.2.8,14.4,7.7c0,0,1.4,6.5,1.6,14.6" class="st1"></path>
    <circle transform="translate(-12 49.9) rotate(-20.7)" r=".4" cy="57.9" cx="130.5"></circle>
    <path d="M144.1,68.1s4,4.3-.8,6.1l-8.2,2.9" class="st6"></path>
  </g>
  <g>
    <g>
      <line y2="57.9" x2="32" y1="57.9" x1="29.5" class="st1"></line>
      <line y2="57.9" x2="27.2" y1="57.9" x1="24.7" class="st1"></line>
    </g>
    <g>
      <line y2="54.3" x2="28.4" y1="56.8" x1="28.4" class="st1"></line>
      <line y2="59.1" x2="28.4" y1="61.5" x1="28.4" class="st1"></line>
    </g>
  </g>
  <g>
    <g>
      <line y2="98" x2="118.1" y1="98" x1="115.6" class="st1"></line>
      <line y2="98" x2="113.2" y1="98" x1="110.8" class="st1"></line>
    </g>
    <g>
      <line y2="94.4" x2="114.4" y1="96.8" x1="114.4" class="st1"></line>
      <line y2="99.1" x2="114.4" y1="101.6" x1="114.4" class="st1"></line>
    </g>
  </g>
</svg>