<svg viewBox="0 0 150.1 150.1" version="1.1" xmlns="http://www.w3.org/2000/svg" id="ICONS">
  
  <defs>
    <style>
      .st0, .st1, .st2, .st3, .st4, .st5, .st6 {
        fill: none;
      }

      .st7 {
        fill: #050505;
      }

      .st1, .st2, .st3, .st4, .st5, .st6 {
        stroke-linecap: round;
      }

      .st1, .st2, .st5, .st6 {
        stroke: #000;
      }

      .st1, .st4 {
        stroke-miterlimit: 10;
        stroke-width: .7px;
      }

      .st2 {
        stroke-width: 2px;
      }

      .st2, .st3, .st5, .st6 {
        stroke-linejoin: round;
      }

      .st3 {
        stroke: #221f20;
      }

      .st3, .st5 {
        stroke-width: 1.1px;
      }

      .st4 {
        stroke: #000201;
      }

      .st6 {
        stroke-dasharray: 0 0 0 0 0 3;
      }
    </style>
  </defs>
  <g id="_x31_A_BASEBALL_CURVED_BRIM">
    <rect height="149.6" width="149.6" y=".2" x=".2" class="st0"></rect>
    <rect transform="translate(150.1 0) rotate(90)" height="129.6" width="129.6" y="10.2" x="10.2" class="st0"></rect>
    <g>
      <g>
        <g>
          <line y2="29" x2="113.6" y1="29" x1="111.2" class="st4"></line>
          <line y2="29" x2="108.8" y1="29" x1="106.3" class="st4"></line>
        </g>
        <g>
          <line y2="25.4" x2="110" y1="27.8" x1="110" class="st4"></line>
          <line y2="30.2" x2="110" y1="32.6" x1="110" class="st4"></line>
        </g>
      </g>
      <g>
        <path d="M33.7,99.5h0c-16,21.9-17.6,12.3-17.6,12.3,0-2.6.9-4.7,2.2-6.3h0c.3-.4.7-.8,1.1-1.2,3.7-3.5,9.3-4.4,9.3-4.4,1.7-.4,3.4-.5,5.1-.4Z" class="st5"></path>
        <g>
          <path d="M133.5,92.5l-16.4-1.4-12.4-1.1c-9.1-.4-32.6-5.9-32.6-5.9l-16-2.4c-11.2-1.2-20,5-20,5,.1-25.2,7-35.2,7-35.2,12.3-21,46.4-18.8,46.4-18.8,52.4,8.9,43.8,59.8,43.8,59.8Z" class="st3"></path>
          <path d="M116.1,91.6s-9.9,16.1-23,23c0,0-11.2,5.2-23.9.3,0,0-11.3-5.4-14.5-7.8,0,0-10.3-7.3-21.1-7.6-1.7,0-3.4,0-5.1.4,0,0-5.6.9-9.3,4.4l15.8-17.2s8.8-6.2,20-5l16,2.4s23.5,5.5,32.6,5.9l12.4,1.1Z" class="st3"></path>
          <path d="M88.3,33.1s-17.3-1.3-25.1,11.9" class="st3"></path>
          <path d="M88.6,33.1s5,3.1,9.3,9.9c3,4.8,4.7,10.2,5.2,15.7.6,6.3,1.5,19.1.7,31.7" class="st3"></path>
          <path d="M89,33.1h-10.9v-1.3c0-1.3,1.1-2.4,2.4-2.4h6.1c1.3,0,2.4,1.1,2.4,2.4v1.2Z" class="st3"></path>
        </g>
      </g>
      <path d="M117.1,91.1l16.4,1.4s8.6-51-43.8-59.8c0,0-.2,0-.6,0v-.8c0-1.3-1.1-2.4-2.4-2.4h-6.1c-1.3,0-2.4,1.1-2.4,2.4v1.3h.4c-11.1,1.2-27.5,5.2-35.3,18.5,0,0-6.9,9.9-7,35-.7.4-1.1.7-1.1.7l-15.8,17.2c-.4.4-.7.7-1.1,1.1h0c-1.3,1.6-2.2,3.7-2.2,6.4,0,0,1.5,9.5,17.6-12.3h0c10.8.3,21.1,7.6,21.1,7.6,3.2,2.4,14.5,7.8,14.5,7.8,12.7,4.9,23.9-.3,23.9-.3,13-6.9,23-23,23-23l1.1-.4" class="st2"></path>
      <path d="M36.8,46s-7,22.8-5.3,36.5l-12.9,14.8" class="st1"></path>
      <path d="M66.1,121.1s11.8,6.6,23.5,2.1" class="st6"></path>
      <circle r=".4" cy="44.6" cx="37.2" class="st7"></circle>
    </g>
  </g>
</svg>