<svg viewBox="0 0 150.1 150.1" version="1.1" xmlns="http://www.w3.org/2000/svg" id="ICONS">
  
  <defs>
    <style>
      .st0, .st1, .st2, .st3, .st4 {
        fill: none;
      }

      .st1 {
        stroke-miterlimit: 10;
        stroke-width: .7px;
      }

      .st1, .st2, .st3, .st4 {
        stroke-linecap: round;
      }

      .st1, .st3, .st4 {
        stroke: #000;
      }

      .st2 {
        stroke: #9b9b9b;
      }

      .st2, .st3 {
        stroke-width: 1.3px;
      }

      .st2, .st3, .st4 {
        stroke-linejoin: round;
      }

      .st5 {
        fill: #020202;
      }

      .st4 {
        stroke-dasharray: 0 0 0 0 0 3;
      }
    </style>
  </defs>
  <g>
    <g>
      <line y2="38.8" x2="120.6" y1="38.8" x1="118.1" class="st1"></line>
      <line y2="38.8" x2="115.7" y1="38.8" x1="113.2" class="st1"></line>
    </g>
    <g>
      <line y2="35.2" x2="116.9" y1="37.6" x1="116.9" class="st1"></line>
      <line y2="39.9" x2="116.9" y1="42.4" x1="116.9" class="st1"></line>
    </g>
  </g>
  <rect height="149.6" width="149.6" y=".2" x=".2" class="st0"></rect>
  <rect transform="translate(150.1 0) rotate(90)" height="129.6" width="129.6" y="10.2" x="10.2" class="st0"></rect>
  <path d="M87.1,126.9s13.4.9,23.3-3.5" class="st4"></path>
  <circle r=".4" cy="64.6" cx="36.4" class="st5"></circle>
  <path d="M36.5,66v25.7s-16.7,6.5-21.5,6.6" class="st1"></path>
  <path d="M44,96.4s-6.9,3.4-17.9,6.1l-11.4,3s-4.8,1.7.2,4.1c0,0,24.4,11,73,9.3,3.9-.1,7.7-.5,11.6-1.1,8-1.3,21.1-4.1,23.5-8.9" class="st3"></path>
  <path d="M89.2,43.3h4.8c1.6,0,2.9,1.3,2.9,2.9v.5h-10.5v-.6c0-1.5,1.3-2.8,2.8-2.8Z" class="st2"></path>
  <path d="M44,97.4v-26.6s-1.2-18.8,19.2-21.7l25.5-2.5s21.1-.3,37.6,7.4c0,0,14,6.6,13.4,28.2l-.3,20.2s-6.5,7.3-27.5,7.7c0,0-52.5,1.7-63.8-4.5,0,0-4.7-2.9-4.1-8.2Z" class="st3"></path>
  <path d="M94,43.7c1.6,0,2.9,1.3,2.9,2.9v.5c7.5.5,18.6,2.1,29.4,7.2,0,0,14,6.6,13.4,28.2l-.3,20.2s-4.1,4.6-16.3,6.7h0c-2.5,4.8-15.5,7.6-23.5,8.9-3.8.6-7.7,1-11.6,1.1-3.5.1-7,.2-10.2.2-41.8,0-62.8-9.5-62.8-9.5-5-2.5-.2-4.1-.2-4.1l11.4-3c11-2.8,17.9-6.1,17.9-6.1v-25.6s-1.2-18.8,19.2-21.7l23.2-2.3v-.6c0-1.5,1.3-2.8,2.8-2.8h4.8M94,41.7h-4.8c-2.2,0-4.1,1.5-4.6,3.6l-21.6,2.2s0,0,0,0c-11.4,1.7-16.5,8.1-18.8,13.1-2.3,5.2-2.1,9.9-2.1,10.6v24.3c-2.3,1-8.2,3.4-16.4,5.5l-11.5,3s0,0-.1,0c-.5.2-3.2,1.3-3.4,3.6-.1,2.5,2.5,3.8,3.4,4.2,0,0,0,0,0,0,.9.4,21.8,9.7,63.6,9.7s6.9,0,10.3-.2c4.1-.1,8.1-.5,11.8-1.1,13.4-2.2,21.6-5.2,24.4-9.1,12-2.3,16.4-7,16.6-7.2.3-.4.5-.8.5-1.3l.3-20.2c.7-22.6-13.9-29.7-14.5-30-8.2-3.9-18-6.4-28.4-7.2-.6-2.1-2.5-3.6-4.7-3.6h0Z"></path>
  <path d="M111.4,109.7c-1.1-3,0-39.3,0-39.3,0-25.7-22.7-23.9-22.7-23.9,0,0-22.6,5.7-22.5,21.8" class="st3"></path>
</svg>