<svg viewBox="0 0 150.1 150.1" version="1.1" xmlns="http://www.w3.org/2000/svg" id="ICONS">
  
  <defs>
    <style>
      .st0, .st1, .st2, .st3, .st4, .st5 {
        fill: none;
      }

      .st1, .st2 {
        stroke-width: .7px;
      }

      .st1, .st2, .st3, .st4, .st6 {
        stroke-miterlimit: 10;
      }

      .st1, .st2, .st5 {
        stroke-linecap: round;
      }

      .st1, .st3, .st5 {
        stroke: #000;
      }

      .st2 {
        stroke: #000201;
      }

      .st4 {
        stroke: #221f20;
      }

      .st5 {
        stroke-dasharray: 0 0 0 0 0 3;
        stroke-linejoin: round;
      }

      .st6 {
        stroke: #9b9b9b;
      }
    </style>
  </defs>
  <g>
    <g>
      <line y2="40.7" x2="118.4" y1="40.7" x1="116" class="st2"></line>
      <line y2="40.7" x2="113.6" y1="40.7" x1="111.1" class="st2"></line>
    </g>
    <g>
      <line y2="37.1" x2="114.8" y1="39.5" x1="114.8" class="st2"></line>
      <line y2="41.8" x2="114.8" y1="44.3" x1="114.8" class="st2"></line>
    </g>
  </g>
  <rect height="149.6" width="149.6" y=".2" x=".2" class="st0"></rect>
  <rect transform="translate(150.1 0) rotate(90)" height="129.6" width="129.6" y="10.2" x="10.2" class="st0"></rect>
  <circle r=".4" cy="64.4" cx="28.5"></circle>
  <path d="M22,92.1l5.4,1.3s2,.6,5.8.1l11.6-1.2s5.9-.4,9.8.9c0,0,4.7,1.5,12.2,5.3,0,0,6.4,3.2,15,.6,0,0,13-3.2,18.6-3.9,0,0,16.6-2.7,29.1-2.4,0,0,3,0,3.6,1.5" class="st3"></path>
  <path d="M28.4,77.7s.4-1,8.8.8c0,0,9.9,1.5,14.4,1.7,0,0,16.4.8,22,1.7,0,0,10.7.8,18.4-.5,0,0,10.5-1.7,16.1-2.1,0,0,9.5-.9,13.1,1.1" class="st4"></path>
  <path d="M40.6,47.6s7.2-1.3,9.6-1.1c0,0,3.3.6,5.6.5l2.8.7s7.7.5,11.6,0c0,0,1.5,0,8.1,1.1,0,0,2-.2,4.8-1.1,0,0,5.6-1.5,12.3-1.6,0,0,8.2-.3,9.4-.2" class="st4"></path>
  <path d="M33.1,67.6l15.7,1.2s4.4.6,6.6.4c0,0,5.2.3,8.4,1.1,0,0,8.8,1.8,11.1,1.7,0,0,5.8.1,8.3-.5,0,0,15.1-1.4,17.9-1.5,0,0,13.6-.9,16,.3" class="st4"></path>
  <path d="M60.3,47.7s-2.2.7-3.5,7.5c0,0-.1,3.3-1.4,6.8,0,0-2.1,6.1-2.7,10.8l-1,7.5" class="st4"></path>
  <path d="M133.6,94.5h0s0,0,0,0c0,0,0,0,0,0Z" class="st6"></path>
  <path d="M27.8,66s-3.4,6.2-3.5,8.9l-7.8,10s-5.3,2.6-4.1,6.1" class="st1"></path>
  <path d="M133.9,86.7s15.1,10.7,0,15.4c0,0-17.2,3.2-21.2,5.1" class="st5"></path>
  <path d="M98.3,43.9s3.2.5,6.1,1.7l3.1,1.3s1.4,1.2,2,2.5c.2.5.3.6.3.6,0,0-.2-.5-.2-.5,0,0,1.3,1.1,1.7,3.3,0,0,.7,2.3,1.3,3,0,0,4.2,13.4,4.6,14,0,0,3.9,7.1,4.1,10.6,0,0,3.3,4.9,8.6,10.4,0,0,5,.9,3.5,3.5,0,0-3.5,2.4-8.3,3.5,0,0-15.5,2.7-19,3.7,0,0-4.2,1.3-6.7,2.1,0,0-6.6,1.6-9.3,1.7,0,0-8.4.7-10.8.7s-.2,0-.3,0c0,0-2,.2-4.9.2s-5.3-.2-8-.8c0,0-8.3-2.2-11.6-2.6-1.1-.1-1.4-.2-1.5-.2,0,0,1.4.2,1.4.2,0,0-15.7-2-19.4-4.8l-12.9-6s-.9.2-2,.2-2.4-.1-3.4-.7c0,0-.3-1.6,2.2-2l9.6-11.8s2.5-7.9,4.7-10.1c0,0,.5-.5,0-2.1,0,0,2.7-8.4,4.9-11.6l2.6-6.3s3.2-2.6,13.8-3.3l2.5-.5s13.6.1,17.7.6c0,0,2.3.6,4.6.6s2.7-.2,3.6-.7c0,0,12.7-.2,15.5-.5M98.3,41.9c0,0-.2,0-.3,0-2.2.3-11.8.5-15.3.5-.3,0-.7,0-1,.3-.3.2-1.1.5-2.7.5s-4.1-.5-4.1-.5c0,0-.2,0-.2,0-4.2-.5-17.4-.7-18-.7,0,0,0,0,0,0-.1,0-.2,0-.4,0l-2.3.4c-10.9.7-14.4,3.4-14.8,3.7-.3.2-.4.5-.6.8l-2.5,6.1c-2.3,3.5-4.9,11.6-5,11.9-.1.4-.1.8,0,1.3,0,.2.1.4.1.5-2.1,2.5-4,8.2-4.6,10.1l-9,11c-1.5.4-2.3,1.3-2.7,2.1-.5,1-.4,1.9-.4,2.1,0,.6.4,1.1,1,1.4,1.1.7,2.6,1,4.4,1s1.3,0,1.7,0l12.2,5.6c4.3,2.9,18.6,4.8,20.2,5.1,0,0,.2,0,.3,0s0,0,0,0c3.3.5,11,2.5,11.1,2.5,0,0,0,0,0,0,2.4.5,5.2.8,8.4.8s4.4-.2,4.9-.2c0,0,.1,0,.2,0,2.3,0,10.2-.6,10.9-.7,2.9-.1,9-1.6,9.7-1.8,0,0,0,0,.1,0,2.4-.8,6.6-2.1,6.7-2.1,3.4-1,18.6-3.6,18.8-3.7,0,0,0,0,0,0,5.2-1.1,8.8-3.7,9-3.8.2-.2.4-.4.6-.6.6-1.1.7-2.3.2-3.4-.8-1.8-3.1-2.7-4.4-3-4-4.2-6.8-8.1-7.6-9.3-.5-3.9-3.9-10.1-4.3-10.8,0,0,0,0,0,0-.5-1-2.9-8.5-4.5-13.6,0-.3-.2-.5-.4-.7-.2-.3-.6-1.3-.8-2.1-.4-2.2-1.5-3.6-2-4.1-.8-1.5-2.2-2.8-2.3-2.9-.2-.1-.3-.2-.5-.3l-3.1-1.3c-3-1.4-6.5-1.9-6.6-1.9,0,0-.2,0-.3,0h0Z"></path>
  <g>
    <path d="M133,94.9s0,0,0,0c-.7.4-3.9,2.5-8.1,3.4,0,0-15.5,2.7-19,3.7,0,0-4.2,1.3-6.7,2.1,0,0-6.6,1.6-9.3,1.7,0,0-9.1.7-11,.6,0,0-6.9.8-12.8-.5,0,0-8.3-2.2-11.6-2.6-1.1-.1-1.5-.2-1.5-.2,0,0,0,0,.1,0-3.8-.5-15.1-2.3-18.2-4.6l-12.9-5.9,5.4,1.3s2,.6,5.8.1l9.7-1,1.9-.2s4.1-.3,7.8.4c.7.1,1.4.3,2,.5,0,0,4.7,1.5,12.2,5.3,0,0,6.4,3.2,15,.6,0,0,13-3.2,18.6-3.9,0,0,4.1-.7,9.8-1.3,5.7-.6,13-1.2,19.3-1.1,0,0,3,0,3.6,1.5Z"></path>
    <path d="M133,94.9h0s0,0,0,0c0,0,0,0,0,0Z"></path>
  </g>
</svg>