<svg viewBox="0 0 149.6 149.6" version="1.1" id="ICONS" xmlns="http://www.w3.org/2000/svg"><defs><style>.st0,.st1,.st2,.st3{fill:none}.st1{stroke-miterlimit:10;stroke-width:.7px}.st1,.st2,.st3{stroke:#000}.st1,.st3{stroke-linecap:round}.st2{stroke-width:.7px}.st3{stroke-width:1.2px;stroke-linejoin:round}</style></defs><path class="st1" d="M117.8 33h2.5M113 33h2.5M116.7 31.8v-2.4M116.7 36.6v-2.4"></path><path class="st0" d="M0 0h149.6v149.6H0z"></path><path class="st0" d="M139.6 10v129.6H10V10z"></path><path class="st1" d="M45.8 51.2s-10.9 21.2-11.7 35L18.8 98.5"></path><path style="stroke-dasharray:0 0 0 0 0 3;stroke-linejoin:round;stroke-linecap:round;stroke:#000;fill:none" d="M67.9 123.6s11.8 6.6 23.5 2.1"></path><circle r=".4" cy="49.9" cx="46.5"></circle><path class="st3" d="M18.3 103.6c18.5-6.8 36.5 8.1 43.5 11.8 7 3.6 16.6 5.5 16.6 5.5 11.8 2.1 22.3-5.9 22.3-5.9 5.8-3 13.9-12.7 13.9-12.7l-33.3-9.5c-36.8-10.3-42.7-2.3-42.7-2.3l-20.2 13.2c-6 3.7-8.1 8.7-8.1 8.7S4.6 127.8 36 103"></path><path class="st3" d="M39.2 89.7s3.3-15.2 8.3-25.5c0 0 3.9-9 10.5-14.5s1.1-.8 1.7-1.1c2.1-1.1 7.4-3.7 9.9-5s1.3-.6 2-.8c3-.8 11.6-2.8 18.8-2.6 0 0 15.2.9 22.4 2.7.4 0 .7.2 1.1.4 2.8 1.1 14.6 6.4 21.7 19.9 0 0 6.9 11.6 5.1 30.8l-.7 6.9c-.1 1.3-1.2 2.2-2.5 2.1l-21.8-.8c-.8 0-1.6-.2-2.3-.4l-33.9-9.7S51 83.7 39.2 89.7Z"></path><path class="st3" d="M79.2 41.3s-13 7.8-15.9 19.6M106.8 41.8s4.4 7.3 4.1 22.8c0 0-2.5 27.2 3.1 37.6M89.8 40.4l9.1.7s-2.3-5.3-9.1-.7Z"></path><path d="M94.9 38.2c2.7 0 3.9 2.1 4.1 2.5 4.7.4 10.3 1.1 13.9 2.1.4 0 .7.2 1.1.4 2.8 1.1 14.6 6.4 21.7 19.9 0 0 6.9 11.6 5.1 30.8l-.7 6.9c-.1 1.2-1.1 2.1-2.4 2.1l-21.8-.8s-9.2 9.7-15 12.7c0 0-8.2 6.3-18.2 6.3s-2.7-.1-4.1-.4c0 0-9.6-1.8-16.6-5.5-5.6-2.9-11.7-11.9-25.9-12.5-14 11.1-20.6 14.2-23.7 14.2s-2-4.7-2-4.7 2.2-5 8.1-8.7l20.9-13.9s3.3-15.2 8.3-25.5c0 0 3.9-9 10.5-14.5.5-.4 1.1-.8 1.7-1.1 2.1-1.1 7.4-3.7 9.9-5 .6-.3 1.3-.6 2-.8 2.9-.7 10.9-2.6 17.9-2.6h.3c2-1.4 3.7-1.8 5-1.8m-.1-2.1v2-2c-1.7 0-3.6.6-5.5 1.8-7.1 0-15 1.9-18.1 2.7-.8.2-1.7.5-2.4.9-2.5 1.3-7.8 3.9-9.9 4.9-.8.4-1.5.8-2.1 1.4-6.7 5.6-10.7 14.4-11.1 15.2-4.4 9.1-7.5 21.8-8.2 25.1l-20.2 13.4c-6.4 4-8.8 9.4-8.9 9.6v.1c-.2.6-1.2 3.6.3 5.7.5.8 1.6 1.7 3.7 1.7s6.4 0 24.3-14.1c9.2.6 14.7 5 19.1 8.5 1.9 1.5 3.5 2.8 5.2 3.7 7.2 3.7 16.7 5.6 17.1 5.7 1.5.3 2.9.4 4.4.4 10 0 18.1-5.7 19.3-6.6 5.2-2.8 12.6-10.1 14.8-12.4l20.9.8h.2c2.3 0 4.1-1.7 4.4-3.9l.7-6.9c1.8-19.2-4.8-31-5.4-32-7.3-13.9-19.2-19.4-22.7-20.8-.5-.2-.9-.3-1.3-.4-2.9-.8-7.4-1.4-13.3-2-.8-1.1-2.5-2.6-5.2-2.6Z"></path><path class="st2" d="M18.3 103.6c18.5-6.8 36.5 8.1 43.5 11.8 7 3.6 16.6 5.5 16.6 5.5 11.8 2.1 22.3-5.9 22.3-5.9 5.8-3 13.9-12.7 13.9-12.7l-33.3-9.5c-36.8-10.3-42.7-2.3-42.7-2.3l-20.2 13.2c-6 3.7-8.1 8.7-8.1 8.7S4.6 127.8 36 103"></path><path class="st2" d="M39.2 89.7s3.3-15.2 8.3-25.5c0 0 3.9-9 10.5-14.5s1.1-.8 1.7-1.1c2.1-1.1 7.4-3.7 9.9-5s1.3-.6 2-.8c3-.8 11.6-2.8 18.8-2.6 0 0 15.2.9 22.4 2.7.4 0 .7.2 1.1.4 2.8 1.1 14.6 6.4 21.7 19.9 0 0 6.9 11.6 5.1 30.8l-.7 6.9c-.1 1.3-1.2 2.2-2.5 2.1l-21.8-.8c-.8 0-1.6-.2-2.3-.4l-33.9-9.7S51 83.7 39.2 89.7Z"></path><path class="st2" d="M79.2 41.3s-13 7.8-15.9 19.6M106.8 41.8s4.4 7.3 4.1 22.8c0 0-2.5 27.2 3.1 37.6M89.8 40.4l9.1.7s-2.3-5.3-9.1-.7Z"></path><path class="st2" d="M82.5 121.9c-1.4 0-2.9-.1-4.2-.4-.4 0-9.8-1.9-16.9-5.6-1.6-.8-3.2-2.1-5-3.6-4.6-3.7-10.3-8.3-20.1-8.8-12.1 9.5-19.9 14.1-24 14.1-1.6 0-2.4-.7-2.8-1.3-1.2-1.7-.3-4.5-.1-4.8.1-.3 2.4-5.4 8.5-9.2l20.5-13.6c.6-2.5 3.7-16 8.3-25.3.1-.3 4.1-9.3 10.8-14.8.5-.5 1.2-.9 1.9-1.2 2.1-1.1 7.4-3.7 9.9-5 .7-.4 1.5-.6 2.2-.8 3.1-.8 11.1-2.7 18.1-2.7 1.9-1.2 3.7-1.8 5.3-1.8 2.6 0 4.1 1.6 4.7 2.5 6 .6 10.6 1.3 13.6 2 .4 0 .8.2 1.2.4 3.4 1.3 15 6.7 22.2 20.4.3.4 7.1 12 5.3 31.3l-.7 6.9c-.2 1.7-1.6 3-3.4 3s-21.5-.8-21.5-.8c-1.7 1.7-9.6 9.7-14.9 12.5-.9.7-8.9 6.4-18.8 6.4Z"></path><path class="st2" d="M94.9 38.2c2.7 0 3.9 2.1 4.1 2.5 4.7.4 10.3 1.1 13.9 2.1.4 0 .7.2 1.1.4 2.8 1.1 14.6 6.4 21.7 19.9 0 0 6.9 11.6 5.1 30.8l-.7 6.9c-.1 1.2-1.1 2.1-2.4 2.1l-21.8-.8s-9.2 9.7-15 12.7c0 0-8.2 6.3-18.2 6.3s-2.7-.1-4.1-.4c0 0-9.6-1.8-16.6-5.5-5.6-2.9-11.7-11.9-25.9-12.5-14 11.1-20.6 14.2-23.7 14.2s-2-4.7-2-4.7 2.2-5 8.1-8.7l20.9-13.9s3.3-15.2 8.3-25.5c0 0 3.9-9 10.5-14.5.5-.4 1.1-.8 1.7-1.1 2.1-1.1 7.4-3.7 9.9-5 .6-.3 1.3-.6 2-.8 2.9-.7 10.9-2.6 17.9-2.6h.3c2-1.4 3.7-1.8 5-1.8m-.1-2.1v2-2c-1.7 0-3.6.6-5.5 1.8-7.1 0-15 1.9-18.1 2.7-.8.2-1.7.5-2.4.9-2.5 1.3-7.8 3.9-9.9 4.9-.8.4-1.5.8-2.1 1.4-6.7 5.6-10.7 14.4-11.1 15.2-4.4 9.1-7.5 21.8-8.2 25.1l-20.2 13.4c-6.4 4-8.8 9.4-8.9 9.6v.1c-.2.6-1.2 3.6.3 5.7.5.8 1.6 1.7 3.7 1.7s6.4 0 24.3-14.1c9.2.6 14.7 5 19.1 8.5 1.9 1.5 3.5 2.8 5.2 3.7 7.2 3.7 16.7 5.6 17.1 5.7 1.5.3 2.9.4 4.4.4 10 0 18.1-5.7 19.3-6.6 5.2-2.8 12.6-10.1 14.8-12.4l20.9.8h.2c2.3 0 4.1-1.7 4.4-3.9l.7-6.9c1.8-19.2-4.8-31-5.4-32-7.3-13.9-19.2-19.4-22.7-20.8-.5-.2-.9-.3-1.3-.4-2.9-.8-7.4-1.4-13.3-2-.8-1.1-2.5-2.6-5.2-2.6Z"></path></svg>