<svg viewBox="0 0 150.1 150.1" version="1.1" xmlns="http://www.w3.org/2000/svg" id="ICONS">
  
  <defs>
    <style>
      .st0, .st1, .st2, .st3, .st4, .st5, .st6, .st7 {
        fill: none;
      }

      .st1, .st8, .st4, .st6, .st9, .st10 {
        stroke-miterlimit: 10;
      }

      .st1, .st8, .st7 {
        stroke: #000;
      }

      .st1, .st6 {
        stroke-width: .7px;
      }

      .st1, .st6, .st7 {
        stroke-linecap: round;
      }

      .st8 {
        fill: #fff;
      }

      .st8, .st4, .st9 {
        stroke-width: 0px;
      }

      .st2, .st3, .st5, .st10 {
        stroke: #221f20;
      }

      .st3 {
        stroke-width: .7px;
      }

      .st4, .st9 {
        stroke: #9b9b9b;
      }

      .st5 {
        stroke-width: 3px;
      }

      .st6 {
        stroke: #000201;
      }

      .st9 {
        fill: #9b9b9b;
      }

      .st7 {
        stroke-dasharray: 0 0 0 0 0 3;
        stroke-linejoin: round;
      }

      .st10 {
        fill: #221f20;
        stroke-width: .8px;
      }
    </style>
  </defs>
  <g>
    <g>
      <line y2="35.1" x2="120.6" y1="35.1" x1="118.1" class="st6"></line>
      <line y2="35.1" x2="115.7" y1="35.1" x1="113.2" class="st6"></line>
    </g>
    <g>
      <line y2="31.5" x2="116.9" y1="33.9" x1="116.9" class="st6"></line>
      <line y2="36.2" x2="116.9" y1="38.7" x1="116.9" class="st6"></line>
    </g>
  </g>
  <rect height="149.6" width="149.6" y=".2" x=".2" class="st0"></rect>
  <rect transform="translate(150.1 0) rotate(90)" height="129.6" width="129.6" y="10.2" x="10.2" class="st0"></rect>
  <circle r=".4" cy="66.1" cx="20.8"></circle>
  <g>
    <g>
      <path d="M130.2,87l-.4,6.5c0,.2,0,.5-.1.7-.3,0-.7,0-1.1,0-14.4.7-32.2-7.6-38.6-10.8-1.8-.9-3.7-1.8-5.7-2.5l-27.8-9.9c-17.8-5.5-26.5-2.1-28-1.5-.1,0-.3.1-.4.2-.1,0-.3,0-.4.2,0-.1,0-.2,0-.3,0-.2.2-.4.3-.5,2.4-3.2,15.8-20.7,26.9-26.8,0,0,.1,0,.2-.1,1.3-.8,17.6-10.4,34.1-8.2,0,0,16.7,1.9,28.7,16.2,0,0,13.5,17,12.2,37Z" class="st4"></path>
      <path d="M133.5,98.9c0,0,0,.1,0,.2l-.9,11.9c0,.4,0,.7-.2,1.1-.5,1.5-2.1,4.7-7.1,4.6,0,0-2.9.1-6.8-.1l-3.8-.7c-13.3-3.2-41.8-14.7-41.8-14.7-18.6-8.6-40.4-11-45.9-11.5-1.3-.1-2.6,0-3.8.5-5.9,2.2-.6,7.9.7,9.2-4.4-2.7-8.4-6.5-6.9-11.3,0-.1,0-.2.1-.3.4-1.7,3.9-15.4,10.6-18.1.1,0,.3-.1.4-.2.2,0,.3-.1.4-.2,1.4-.6,10.2-4,28,1.5l27.8,9.9c2,.7,3.9,1.5,5.7,2.5,6.4,3.3,24.1,11.6,38.6,10.8.4,0,.7,0,1.1,0,2.3.4,4,2.4,3.9,4.8Z" class="st4"></path>
      <path d="M118.5,116.6c-.2,0-.5,0-.7,0-.9-.1-1.9-.4-3.1-.6l3.8.7Z" class="st8"></path>
      <path d="M117.7,116.5c-1.9-.1-4-.4-6-.7,0,0-10.9-2.3-30.7-4.3,0,0-39.4-5.1-48.1-8,0,0-4.4-1.4-8.7-3.8-.2,0-.3-.2-.5-.3-1.3-1.3-6.6-6.9-.7-9.2,1.2-.5,2.5-.6,3.8-.5,5.6.5,27.3,2.9,45.9,11.5,0,0,28.4,11.4,41.8,14.7,1.2.3,2.2.5,3.1.6Z" class="st9"></path>
      <path d="M119.1,116.7c-.4,0-.9,0-1.4-.2-.9-.1-1.9-.4-3.1-.6l3.8.7h.6Z" class="st8"></path>
    </g>
    <g>
      <path d="M130.2,87l-.4,6.5c0,.2,0,.5-.1.7-.3,0-.7,0-1.1,0-14.4.7-32.2-7.6-38.6-10.8-1.8-.9-3.7-1.8-5.7-2.5l-27.8-9.9c-17.8-5.5-26.5-2.1-28-1.5-.1,0-.3.1-.4.2-.1,0-.3,0-.4.2,0-.1,0-.2,0-.3,0-.2.2-.4.3-.5,2.4-3.2,15.8-20.7,26.9-26.8,0,0,.1,0,.2-.1,1.3-.8,17.6-10.4,34.1-8.2,0,0,16.7,1.9,28.7,16.2,0,0,13.5,17,12.2,37Z" class="st5"></path>
      <path d="M133.5,98.9c0,0,0,.1,0,.2l-.9,11.9c0,.4,0,.7-.2,1.1-.5,1.5-2.1,4.7-7.1,4.6,0,0-2.9.1-6.8-.1l-3.8-.7c-13.3-3.2-41.8-14.7-41.8-14.7-18.6-8.6-40.4-11-45.9-11.5-1.3-.1-2.6,0-3.8.5-5.9,2.2-.6,7.9.7,9.2-4.4-2.7-8.4-6.5-6.9-11.3,0-.1,0-.2.1-.3.4-1.7,3.9-15.4,10.6-18.1.1,0,.3-.1.4-.2.2,0,.3-.1.4-.2,1.4-.6,10.2-4,28,1.5l27.8,9.9c2,.7,3.9,1.5,5.7,2.5,6.4,3.3,24.1,11.6,38.6,10.8.4,0,.7,0,1.1,0,2.3.4,4,2.4,3.9,4.8Z" class="st5"></path>
      <path d="M118.5,116.6c-.2,0-.5,0-.7,0-.9-.1-1.9-.4-3.1-.6l3.8.7Z" class="st5"></path>
      <path d="M117.7,116.5c-1.9-.1-4-.4-6-.7,0,0-10.9-2.3-30.7-4.3,0,0-39.4-5.1-48.1-8,0,0-4.4-1.4-8.7-3.8-.2,0-.3-.2-.5-.3-1.3-1.3-6.6-6.9-.7-9.2,1.2-.5,2.5-.6,3.8-.5,5.6.5,27.3,2.9,45.9,11.5,0,0,28.4,11.4,41.8,14.7,1.2.3,2.2.5,3.1.6Z" class="st5"></path>
      <path d="M119.1,116.7c-.4,0-.9,0-1.4-.2-.9-.1-1.9-.4-3.1-.6l3.8.7h.6Z" class="st5"></path>
    </g>
    <g>
      <path d="M130.2,87l-.4,6.5c0,.2,0,.5-.1.7-.3,0-.7,0-1.1,0-14.4.7-32.2-7.6-38.6-10.8-1.8-.9-3.7-1.8-5.7-2.5l-27.8-9.9c-17.8-5.5-26.5-2.1-28-1.5-.1,0-.3.1-.4.2-.1,0-.3,0-.4.2,0-.1,0-.2,0-.3,0-.2.2-.4.3-.5,2.4-3.2,15.8-20.7,26.9-26.8,0,0,.1,0,.2-.1,1.3-.8,17.6-10.4,34.1-8.2,0,0,16.7,1.9,28.7,16.2,0,0,13.5,17,12.2,37Z" class="st2"></path>
      <path d="M133.5,98.9c0,0,0,.1,0,.2l-.9,11.9c0,.4,0,.7-.2,1.1-.5,1.5-2.1,4.7-7.1,4.6,0,0-2.9.1-6.8-.1l-3.8-.7c-13.3-3.2-41.8-14.7-41.8-14.7-18.6-8.6-40.4-11-45.9-11.5-1.3-.1-2.6,0-3.8.5-5.9,2.2-.6,7.9.7,9.2-4.4-2.7-8.4-6.5-6.9-11.3,0-.1,0-.2.1-.3.4-1.7,3.9-15.4,10.6-18.1.1,0,.3-.1.4-.2.2,0,.3-.1.4-.2,1.4-.6,10.2-4,28,1.5l27.8,9.9c2,.7,3.9,1.5,5.7,2.5,6.4,3.3,24.1,11.6,38.6,10.8.4,0,.7,0,1.1,0,2.3.4,4,2.4,3.9,4.8Z" class="st2"></path>
      <path d="M118.5,116.6c-.2,0-.5,0-.7,0-.9-.1-1.9-.4-3.1-.6l3.8.7Z" class="st2"></path>
      <path d="M117.7,116.5c-1.9-.1-4-.4-6-.7,0,0-10.9-2.3-30.7-4.3,0,0-39.4-5.1-48.1-8,0,0-4.4-1.4-8.7-3.8-.2,0-.3-.2-.5-.3-1.3-1.3-6.6-6.9-.7-9.2,1.2-.5,2.5-.6,3.8-.5,5.6.5,27.3,2.9,45.9,11.5,0,0,28.4,11.4,41.8,14.7,1.2.3,2.2.5,3.1.6Z" class="st2"></path>
      <path d="M119.1,116.7c-.4,0-.9,0-1.4-.2-.9-.1-1.9-.4-3.1-.6l3.8.7h.6Z" class="st2"></path>
    </g>
    <g>
      <path d="M130.2,87l-.4,6.5c0,.2,0,.5-.1.7-.3,0-.7,0-1.1,0-14.4.7-32.2-7.6-38.6-10.8-1.8-.9-3.7-1.8-5.7-2.5l-27.8-9.9c-17.8-5.5-26.5-2.1-28-1.5-.1,0-.3.1-.4.2-.1,0-.3,0-.4.2,0-.1,0-.2,0-.3,0-.2.2-.4.3-.5,2.4-3.2,15.8-20.7,26.9-26.8,0,0,.1,0,.2-.1,1.3-.8,17.6-10.4,34.1-8.2,0,0,16.7,1.9,28.7,16.2,0,0,13.5,17,12.2,37Z" class="st3"></path>
      <path d="M133.5,98.9c0,0,0,.1,0,.2l-.9,11.9c0,.4,0,.7-.2,1.1-.5,1.5-2.1,4.7-7.1,4.6,0,0-2.9.1-6.8-.1l-3.8-.7c-13.3-3.2-41.8-14.7-41.8-14.7-18.6-8.6-40.4-11-45.9-11.5-1.3-.1-2.6,0-3.8.5-5.9,2.2-.6,7.9.7,9.2-4.4-2.7-8.4-6.5-6.9-11.3,0-.1,0-.2.1-.3.4-1.7,3.9-15.4,10.6-18.1.1,0,.3-.1.4-.2.2,0,.3-.1.4-.2,1.4-.6,10.2-4,28,1.5l27.8,9.9c2,.7,3.9,1.5,5.7,2.5,6.4,3.3,24.1,11.6,38.6,10.8.4,0,.7,0,1.1,0,2.3.4,4,2.4,3.9,4.8Z" class="st3"></path>
      <path d="M118.5,116.6c-.2,0-.5,0-.7,0-.9-.1-1.9-.4-3.1-.6l3.8.7Z" class="st3"></path>
      <path d="M117.7,116.5c-1.9-.1-4-.4-6-.7,0,0-10.9-2.3-30.7-4.3,0,0-39.4-5.1-48.1-8,0,0-4.4-1.4-8.7-3.8-.2,0-.3-.2-.5-.3-1.3-1.3-6.6-6.9-.7-9.2,1.2-.5,2.5-.6,3.8-.5,5.6.5,27.3,2.9,45.9,11.5,0,0,28.4,11.4,41.8,14.7,1.2.3,2.2.5,3.1.6Z" class="st3"></path>
      <path d="M119.1,116.7c-.4,0-.9,0-1.4-.2-.9-.1-1.9-.4-3.1-.6l3.8.7h.6Z" class="st3"></path>
    </g>
  </g>
  <path d="M117.7,116.5c-1.9-.1-4-.4-6-.7,0,0-10.9-2.3-30.7-4.3,0,0-39.4-5.1-48.1-8,0,0-4.4-1.4-8.7-3.8-.2,0-.3-.2-.5-.3-1.3-1.3-6.6-6.9-.7-9.2,1.2-.5,2.5-.6,3.8-.5,5.6.5,27.3,2.9,45.9,11.5,0,0,28.4,11.4,41.8,14.7,1.2.3,2.2.5,3.1.6Z" class="st10"></path>
  <path d="M16,100.1s-7.1-6.5-2.6-17.3l6.8-15.1" class="st1"></path>
  <path d="M139.7,111v6.5s-3.1,8-16.7,6.3c0,0-16-3.1-21.7-3" class="st7"></path>
</svg>