<svg viewBox="0 0 150.1 150.1" version="1.1" xmlns="http://www.w3.org/2000/svg" id="ICONS">
  
  <defs>
    <style>
      .st0, .st1, .st2, .st3, .st4, .st5 {
        fill: none;
      }

      .st1 {
        stroke-width: .7px;
      }

      .st1, .st6, .st3, .st5 {
        stroke-linecap: round;
      }

      .st1, .st2, .st3, .st4, .st5 {
        stroke: #000;
      }

      .st1, .st4 {
        stroke-miterlimit: 10;
      }

      .st6 {
        fill: #fff;
        stroke: #000201;
      }

      .st6, .st3 {
        stroke-width: 1.3px;
      }

      .st6, .st3, .st5 {
        stroke-linejoin: round;
      }

      .st2 {
        stroke-width: .7px;
      }

      .st5 {
        stroke-dasharray: 0 0 0 0 0 3;
      }
    </style>
  </defs>
  <g>
    <g>
      <line y2="38.8" x2="120.6" y1="38.8" x1="118.1" class="st1"></line>
      <line y2="38.8" x2="115.7" y1="38.8" x1="113.2" class="st1"></line>
    </g>
    <g>
      <line y2="35.2" x2="116.9" y1="37.6" x1="116.9" class="st1"></line>
      <line y2="39.9" x2="116.9" y1="42.4" x1="116.9" class="st1"></line>
    </g>
  </g>
  <rect height="149.6" width="149.6" y=".2" x=".2" class="st0"></rect>
  <rect transform="translate(150.1 0) rotate(90)" height="129.6" width="129.6" y="10.2" x="10.2" class="st0"></rect>
  <path d="M87.1,126.9s13.4.9,23.3-3.5" class="st5"></path>
  <circle r=".4" cy="64.6" cx="36.4"></circle>
  <path d="M36.5,66v25.7s-16.7,6.5-21.5,6.6" class="st1"></path>
  <g>
    <g>
      <path d="M44,96.4s-6.9,3.4-17.9,6.1l-11.4,3s-4.8,1.7.2,4.1c0,0,24.4,11,73,9.3,3.9-.1,7.7-.5,11.6-1.1,8-1.3,21.1-4.1,23.5-8.9" class="st3"></path>
      <path d="M96.9,46.2v.5h-10.5v-.6c0-1.5,1.2-2.8,2.8-2.8h4.8c1.6,0,2.9,1.3,2.9,2.9Z" class="st3"></path>
      <path d="M139.7,82.1l-.3,20.2s-6.5,7.3-27.5,7.8c0,0,0,0-.3,0-1-4.2-.1-39.7-.1-39.7,0-18.3-11.6-22.7-18.2-23.6h2.1c7.6.5,20.2,2.2,30.9,7.2,0,0,14,6.6,13.4,28.2Z" class="st3"></path>
      <path d="M111.6,110s0,0-.2,0c-5,.1-52.6,1.3-63.3-4.5,0,0-4.7-2.9-4.1-8.2v-26.6s-1.2-18.8,19.2-21.8l23.2-2.3h0s6.8,0,6.8,0c6.6,1,18.1,5.3,18.2,23.6,0,0-.8,35.5.1,39.7Z" class="st3"></path>
      <path d="M94,42.6c1.6,0,2.9,1.3,2.9,2.9v.5c7.6.5,18.7,2.2,29.4,7.2,0,0,14,6.6,13.4,28.2l-.3,20.2s-4.1,4.6-16.3,6.7h0c-2.5,4.8-15.5,7.6-23.5,8.9-3.8.6-7.7,1-11.6,1.1-3.5.1-7,.2-10.2.2-41.8,0-62.8-9.5-62.8-9.5-5-2.5-.2-4.1-.2-4.1l11.4-3c11-2.8,17.8-6.1,17.9-6.1v-25.6s-1.2-18.8,19.2-21.8l23.2-2.3v-.6c0-1.5,1.2-2.8,2.8-2.8h4.8M94,40.6h-4.8c-2.2,0-4.1,1.5-4.6,3.6l-21.6,2.1s0,0,0,0c-11.4,1.7-16.5,8.1-18.8,13.2-2.3,5.2-2.1,9.9-2.1,10.6v24.3c-2.3,1-8.2,3.4-16.4,5.5l-11.5,3s0,0-.1,0c-.5.2-3.2,1.3-3.4,3.6-.1,2.5,2.5,3.8,3.4,4.2,0,0,0,0,0,0,.9.4,21.8,9.7,63.6,9.7s6.9,0,10.3-.2c4.1-.1,8.1-.5,11.8-1.1,13.4-2.2,21.6-5.2,24.4-9.1,12-2.3,16.4-7,16.6-7.2.3-.4.5-.8.5-1.3l.3-20.2c.7-22.6-13.9-29.7-14.5-30-8.2-3.8-18-6.3-28.4-7.2-.6-2.1-2.5-3.6-4.7-3.6h0Z"></path>
      <path d="M95.4,46.7h-9s2.3-.2,2.3-.2c0,0,1,0,2.8,0h0c1,0,2.3,0,3.8.2Z" class="st3"></path>
      <path d="M91.5,46.5c.5,0,1.1,0,1.7.2h-5.4c.5-.2.8-.2.8-.2,0,0,1.1,0,2.8,0h0Z" class="st3"></path>
    </g>
    <g>
      <path d="M44,96.4s-6.9,3.4-17.9,6.1l-11.4,3s-4.8,1.7.2,4.1c0,0,24.4,11,73,9.3,3.9-.1,7.7-.5,11.6-1.1,8-1.3,21.1-4.1,23.5-8.9" class="st2"></path>
      <path d="M96.9,46.2v.5h-10.5v-.6c0-1.5,1.2-2.8,2.8-2.8h4.8c1.6,0,2.9,1.3,2.9,2.9Z" class="st2"></path>
      <path d="M139.7,82.1l-.3,20.2s-6.5,7.3-27.5,7.8c0,0,0,0-.3,0-1-4.2-.1-39.7-.1-39.7,0-18.3-11.6-22.7-18.2-23.6h2.1c7.6.5,20.2,2.2,30.9,7.2,0,0,14,6.6,13.4,28.2Z" class="st2"></path>
      <path d="M111.6,110s0,0-.2,0c-5,.1-52.6,1.3-63.3-4.5,0,0-4.7-2.9-4.1-8.2v-26.6s-1.2-18.8,19.2-21.8l23.2-2.3h0s6.8,0,6.8,0c6.6,1,18.1,5.3,18.2,23.6,0,0-.8,35.5.1,39.7Z" class="st2"></path>
      <g>
        <path d="M77.7,119.6c-41.5,0-63-9.5-63.2-9.6-.8-.4-3-1.5-2.9-3.3.1-1.7,2.3-2.6,2.7-2.7l11.5-3c9.1-2.3,15.3-5,17.1-5.8v-25c0-.1-1.1-19.7,20-22.7l22.4-2.2c.1-2,1.8-3.5,3.8-3.5h4.8c2,0,3.7,1.5,3.9,3.5,10.6.8,20.6,3.3,28.8,7.2.6.3,14.6,7.1,14,29.1l-.3,20.2c0,.2,0,.5-.3.7-.2.2-4.4,4.7-16.4,6.9-3,4.7-14.6,7.5-24,9-3.7.6-7.6,1-11.7,1.1-3.5.1-6.9.2-10.3.2h0Z" class="st2"></path>
        <path d="M94,42.6c1.6,0,2.9,1.3,2.9,2.9v.5c7.6.5,18.7,2.2,29.4,7.2,0,0,14,6.6,13.4,28.2l-.3,20.2s-4.1,4.6-16.3,6.7h0c-2.5,4.8-15.5,7.6-23.5,8.9-3.8.6-7.7,1-11.6,1.1-3.5.1-7,.2-10.2.2-41.8,0-62.8-9.5-62.8-9.5-5-2.5-.2-4.1-.2-4.1l11.4-3c11-2.8,17.8-6.1,17.9-6.1v-25.6s-1.2-18.8,19.2-21.8l23.2-2.3v-.6c0-1.5,1.2-2.8,2.8-2.8h4.8M94,40.6h-4.8c-2.2,0-4.1,1.5-4.6,3.6l-21.6,2.1s0,0,0,0c-11.4,1.7-16.5,8.1-18.8,13.2-2.3,5.2-2.1,9.9-2.1,10.6v24.3c-2.3,1-8.2,3.4-16.4,5.5l-11.5,3s0,0-.1,0c-.5.2-3.2,1.3-3.4,3.6-.1,2.5,2.5,3.8,3.4,4.2,0,0,0,0,0,0,.9.4,21.8,9.7,63.6,9.7s6.9,0,10.3-.2c4.1-.1,8.1-.5,11.8-1.1,13.4-2.2,21.6-5.2,24.4-9.1,12-2.3,16.4-7,16.6-7.2.3-.4.5-.8.5-1.3l.3-20.2c.7-22.6-13.9-29.7-14.5-30-8.2-3.8-18-6.3-28.4-7.2-.6-2.1-2.5-3.6-4.7-3.6h0Z" class="st2"></path>
      </g>
      <path d="M95.4,46.7h-9s2.3-.2,2.3-.2c0,0,1,0,2.8,0h0c1,0,2.3,0,3.8.2Z" class="st2"></path>
      <path d="M91.5,46.5c.5,0,1.1,0,1.7.2h-5.4c.5-.2.8-.2.8-.2,0,0,1.1,0,2.8,0h0Z" class="st2"></path>
    </g>
  </g>
  <path d="M111.6,110.3l-.2-.2c0,0,.1,0,.2,0,0,0,0,.2,0,.2Z" class="st6"></path>
  <g>
    <path d="M128.8,107c.7-.2,1.3-.4,1.9-.6v-48.3c-.7-.7-1.3-1.3-1.9-1.7v50.6Z" class="st0"></path>
    <path d="M132.5,105.7c.8-.3,1.5-.7,2.2-1v-41.6c-.7-1.2-1.4-2.2-2.2-3.1v45.7Z" class="st0"></path>
    <path d="M136.1,103.9c1.2-.7,2-1.4,2.4-1.7v-28c-.5-3.2-1.4-5.9-2.4-8.2v37.9Z" class="st0"></path>
    <path d="M109.7,49.3v8.6c.9,1.9,1.5,4.1,1.9,6.7v-14.9c-.6-.1-1.3-.3-1.9-.4Z" class="st0"></path>
    <path d="M105.8,48.6v3.5c.8.8,1.5,1.7,2.2,2.6v-5.8c-.7-.1-1.5-.3-2.2-.4Z" class="st0"></path>
    <path d="M125.1,107.9c.6-.1,1.1-.3,1.7-.4v-52.6c-.5-.3-.7-.4-.8-.4-.3-.1-.6-.3-.9-.4v53.8Z" class="st0"></path>
    <path d="M101.8,48v1c.8.5,1.6,1.1,2.4,1.7v-2.4c-.8-.1-1.6-.2-2.4-.3Z" class="st0"></path>
    <path d="M99.3,47.7c.4.2.9.4,1.3.6v-.5c-.4,0-.9-.1-1.3-.2Z" class="st0"></path>
    <path d="M121.4,108.6c.5,0,1-.2,1.4-.2v-55.2c-.5-.2-.9-.4-1.4-.5v56Z" class="st0"></path>
    <path d="M113.6,109.3c.6,0,1.1,0,1.7,0v-58.6c-.6-.2-1.1-.3-1.7-.4v59.1Z" class="st0"></path>
    <path d="M117.5,109.1c.5,0,1,0,1.4-.1v-57.2c-.5-.2-.9-.3-1.4-.4v57.8Z" class="st0"></path>
    <path d="M138.6,102.2c0,0,.1-.1.2-.1l.3-19.9h0c0-2.9-.1-5.5-.5-7.9v28Z" class="st4"></path>
    <path d="M134.6,104.7c.6-.3,1.1-.6,1.5-.8v-37.9c-.5-1-1-2-1.5-2.9v41.6Z"></path>
    <path d="M130.7,106.4c.6-.2,1.2-.4,1.8-.7v-45.7c-.6-.7-1.2-1.4-1.8-1.9v48.3Z"></path>
    <path d="M126.8,107.5c.7-.2,1.4-.4,2-.6v-50.6c-.8-.7-1.5-1.1-2-1.4v52.6Z"></path>
    <path d="M122.9,108.4c.8-.1,1.5-.3,2.2-.4v-53.8c-.7-.3-1.5-.7-2.2-1v55.2Z"></path>
    <path d="M100.6,47.9v.5c.4.2.8.4,1.2.7v-1c-.4,0-.8,0-1.2-.1Z"></path>
    <path d="M104.3,48.3v2.4c.5.4,1,.9,1.5,1.4v-3.5c-.5,0-1-.2-1.5-.2Z"></path>
    <path d="M107.9,49v5.8c.6.9,1.2,2,1.8,3.2v-8.6c-.6-.1-1.2-.2-1.8-.3Z"></path>
    <path d="M113.6,109.3v-59.1c-.7-.2-1.3-.3-2-.5v14.9c.3,1.8.5,3.7.5,5.8,0,.4-.8,33.1,0,39,.5,0,1,0,1.5,0Z"></path>
    <path d="M115.3,109.2c.8,0,1.5-.1,2.2-.2v-57.8c-.8-.2-1.5-.5-2.2-.7v58.6Z"></path>
    <path d="M118.9,108.9c.9,0,1.7-.2,2.5-.3v-56c-.8-.3-1.7-.6-2.5-.9v57.2Z"></path>
    <path d="M140.3,82.1c.7-21.8-13.6-28.7-13.8-28.8-10.5-4.9-22.7-6.7-31.2-7.3h-2.2c-.3,0-.6.3-.6.6,0,.3.2.6.6.7,6.6,1,17.6,5.2,17.6,23,0,1.5-.8,35.6.2,39.8,0,.3.3.5.6.5s0,0,0,0c.1,0,.2,0,.2,0,21-.5,27.7-7.7,28-8,.1-.1.2-.3.2-.4l.3-20.2ZM112.1,70.4c0-2.1-.2-4-.5-5.8-.4-2.6-1.1-4.8-1.9-6.7-.5-1.2-1.1-2.2-1.8-3.2-.7-1-1.4-1.9-2.2-2.6-.5-.5-1-.9-1.5-1.4-.8-.6-1.6-1.2-2.4-1.7-.4-.2-.8-.5-1.2-.7-.4-.2-.9-.4-1.3-.6.4,0,.9.1,1.3.2.4,0,.8,0,1.2.1.8,0,1.6.2,2.4.3.5,0,1,.1,1.5.2.7.1,1.4.3,2.2.4.6.1,1.2.2,1.8.3.6.1,1.3.3,1.9.4.7.2,1.3.3,2,.5.6.1,1.1.3,1.7.4.8.2,1.5.4,2.2.7.5.1.9.3,1.4.4.8.3,1.7.6,2.5.9.5.2,1,.3,1.4.5.8.3,1.5.6,2.2,1,.3.1.6.3.9.4,0,0,.3.1.8.4.5.3,1.2.8,2,1.4.6.5,1.2,1,1.9,1.7.6.6,1.2,1.2,1.8,1.9.7.9,1.5,1.9,2.2,3.1.5.9,1,1.8,1.5,2.9,1,2.3,1.9,5,2.4,8.2.4,2.4.6,5,.5,7.9h0s-.3,20-.3,20c0,0,0,0-.2.1-.4.3-1.2,1-2.4,1.7-.4.3-.9.5-1.5.8-.6.3-1.4.7-2.2,1-.5.2-1.1.4-1.8.7-.6.2-1.2.4-1.9.6-.6.2-1.3.4-2,.6-.5.1-1.1.3-1.7.4-.7.2-1.5.3-2.2.4-.5,0-.9.2-1.4.2-.8.1-1.6.2-2.5.3-.5,0-.9.1-1.4.1-.7,0-1.5.1-2.2.2-.5,0-1.1,0-1.7,0-.5,0-1,0-1.5,0-.8-5.9,0-38.7,0-39Z"></path>
  </g>
  <g id="_x31_C_Sports_Wear">
    <path d="M-280.2,90.2c.3,0,.8,0,1.1,0l12.4,1.1,16.4,1.4s.8-4.5.5-11c0-1-.1-2.1-.2-3.2,0-.8-.2-1.5-.3-2.3-.2-1.2-.4-2.4-.6-3.6-.2-1.2-.5-2.5-.9-3.8-.3-1.3-.7-2.6-1.2-3.9-.2-.4-.3-.9-.5-1.3-.5-1.3-1-2.6-1.7-3.9-1.5-3-3.3-6.1-5.6-8.9-.7-.8-1.4-1.6-2.1-2.4-3.7-3.9-8.4-7.5-14.4-10.3-1.2-.6-2.4-1.1-3.7-1.6-.7-.2-1.3-.5-2-.7-3.4-1.2-7.1-2.1-11.2-2.8,0,0-.2,0-.6,0,0,0,0,0,0,0v-.8c0-.3,0-.7-.2-1-.1-.3-.3-.6-.5-.8-.4-.4-1.1-.7-1.7-.7h-6.1c-.5,0-.9.1-1.3.4-.4.3-.7.6-.9,1,0,.1-.1.3-.1.4,0,.2,0,.3,0,.5h0v1.3h.4c-1.3.1-2.8.3-4.2.6-.1,0-.3,0-.4,0-.6,0-1.2.2-1.8.3-.2,0-.3,0-.5.1-.6.1-1.3.3-1.9.4-.1,0-.2,0-.3,0-.8.2-1.5.4-2.3.6-.1,0-.2,0-.4.1-.6.2-1.3.4-1.9.6-.2,0-.5.1-.7.2-.5.2-1.1.4-1.6.6-.2,0-.5.2-.7.3-.6.2-1.2.5-1.8.7-.1,0-.3.1-.4.2-.7.3-1.5.7-2.2,1-.2,0-.4.2-.6.3-.5.3-1.1.6-1.6.9-.2.1-.5.3-.7.4-.5.3-1,.6-1.4.9-.2.1-.5.3-.7.5-.6.4-1.1.8-1.7,1.3,0,0-.2.1-.3.2-.6.5-1.3,1.1-1.9,1.6-.2.2-.3.3-.5.5-.4.4-.8.8-1.2,1.3-.2.2-.4.4-.6.7-.4.4-.8.9-1.1,1.4-.2.2-.3.4-.5.6-.5.7-1,1.4-1.4,2.2,0,0-6.9,9.9-7,35-.7.4-1.1.7-1.1.7l-15.8,17.2c-.4.4-.7.7-1.1,1.1h0c-1.3,1.6-2.2,3.7-2.2,6.4,0,0,1.5,9.5,17.6-12.3h0s0,0,0,0c4.7.1,9.4,1.6,13.1,3.2,1.1.5,2,.9,2.9,1.4s1.7.9,2.4,1.3c.5.3,1,.6,1.3.8.5.3.9.6,1.1.7.2.1.3.2.3.2.5.4,1.2.8,2,1.3.3.2.7.4,1,.6s.4.2.6.3c.8.4,1.6.9,2.4,1.3.2.1.4.2.6.3,1.8,1,3.7,1.9,5.2,2.6.2,0,.3.2.5.2.3.1.6.3.8.4.9.4,1.4.7,1.4.7,12.7,4.9,23.9-.3,23.9-.3.4-.2.8-.4,1.2-.7.8-.5,1.6-1,2.4-1.5.8-.5,1.5-1.1,2.3-1.7,1.5-1.1,2.9-2.4,4.3-3.6.7-.6,1.3-1.3,2-1.9.6-.6,1.2-1.3,1.8-1.9.9-1,1.7-1.9,2.5-2.8.8-.9,1.5-1.8,2.1-2.6.4-.6.8-1.1,1.2-1.6.4-.5.7-1,1-1.4,1.4-2,2.2-3.3,2.2-3.3l-12.4-1.1c-.3,0-.6,0-.9,0-.3,0-.6,0-1,0-2-.2-4.5-.5-7.1-.9-3-.5-6.3-1.1-9.4-1.7-4-.8-7.7-1.6-10.4-2.2-.3,0-.6-.1-.8-.2-1.8-.4-3-.7-3-.7l-8-1.2-8-1.2s0,0,0,0c-.7,0-1.4-.1-2.1-.1-.2,0-.5,0-.7,0-.5,0-.9,0-1.3,0-.3,0-.5,0-.8,0-.4,0-.8,0-1.2.1-.2,0-.5,0-.7.1-.4,0-.8.1-1.2.2-.2,0-.4,0-.6.1-.4,0-.8.2-1.2.3-.2,0-.3,0-.5.1-.4.1-.8.2-1.2.3-.1,0-.2,0-.3.1-.4.1-.9.3-1.3.4,0,0-.1,0-.2,0-.5.2-.9.3-1.3.5h0,0c.2,0,.4-.2.6-.3.2,0,.4-.2.6-.2.2,0,.5-.2.7-.3.3,0,.5-.2.8-.3.1,0,.3,0,.4-.1.4-.1.8-.3,1.2-.4.1,0,.3,0,.4-.1.4-.1.9-.2,1.3-.4.1,0,.2,0,.3,0,.5-.1,1-.2,1.5-.3,0,0,0,0,.1,0,.5,0,1.1-.2,1.6-.2,0,0,.2,0,.2,0,.6,0,1.1-.1,1.7-.1.1,0,.2,0,.3,0,.6,0,1.2,0,1.7,0,0,0,.2,0,.3,0,.6,0,1.3,0,1.9.1l8,1.2,8,1.2s.4,0,1,.2c0,0,.1,0,.2,0,0,0,.2,0,.3,0,0,0,.2,0,.3,0,.1,0,.2,0,.3,0,.2,0,.4,0,.6.1,0,0,0,0,.1,0,.2,0,.4,0,.7.1,0,0,0,0,.1,0,.2,0,.5.1.7.2,0,0,.1,0,.2,0,.2,0,.5.1.7.2,0,0,.2,0,.3,0,.2,0,.5.1.7.2,0,0,.2,0,.2,0,.3,0,.6.1.9.2,0,0,0,0,.1,0,.3,0,.7.1,1,.2,0,0,0,0,.1,0,.3,0,.7.1,1,.2,0,0,.1,0,.2,0,.3,0,.7.1,1,.2,0,0,.1,0,.2,0,.4,0,.7.2,1.1.2,0,0,0,0,.1,0,.4,0,.8.2,1.2.2,0,0,0,0,0,0,.4,0,.8.2,1.2.3,0,0,0,0,0,0,6,1.2,12.6,2.4,16.9,2.7" class="st4"></path>
  </g>
</svg>