<svg viewBox="0 0 150.1 150.1" version="1.1" xmlns="http://www.w3.org/2000/svg" id="ICONS">
  
  <defs>
    <style>
      .st0, .st1, .st2, .st3, .st4, .st5, .st6 {
        fill: none;
      }

      .st1, .st2, .st3, .st5, .st6 {
        stroke-linecap: round;
      }

      .st1, .st4, .st6 {
        stroke: #000;
      }

      .st1, .st5 {
        stroke-miterlimit: 10;
        stroke-width: .7px;
      }

      .st2 {
        stroke: #9b9b9b;
      }

      .st2, .st3, .st6 {
        stroke-linejoin: round;
      }

      .st2, .st6 {
        stroke-width: 1.3px;
      }

      .st3 {
        stroke: #221f20;
        stroke-dasharray: 0 0 0 0 0 3;
      }

      .st4 {
        stroke-width: .7px;
      }

      .st5 {
        stroke: #000201;
      }
    </style>
  </defs>
  <g>
    <g>
      <line y2="38.8" x2="120.6" y1="38.8" x1="118.1" class="st5"></line>
      <line y2="38.8" x2="115.7" y1="38.8" x1="113.2" class="st5"></line>
    </g>
    <g>
      <line y2="35.2" x2="116.9" y1="37.6" x1="116.9" class="st5"></line>
      <line y2="39.9" x2="116.9" y1="42.4" x1="116.9" class="st5"></line>
    </g>
  </g>
  <rect height="149.6" width="149.6" y=".2" x=".2" class="st0"></rect>
  <rect transform="translate(150.1 0) rotate(90)" height="129.6" width="129.6" y="10.2" x="10.2" class="st0"></rect>
  <path d="M87.1,126.9s13.4.9,23.3-3.5" class="st3"></path>
  <circle r=".4" cy="64.6" cx="36.4"></circle>
  <path d="M36.5,66v25.7s-16.7,6.5-21.5,6.6" class="st1"></path>
  <g>
    <g>
      <path d="M41.9,96.2s-7.1,3.5-18.4,6.4l-11.8,3.1s-4.9,1.7.3,4.3c0,0,25.1,11.4,75.2,9.6,4-.1,8-.5,11.9-1.1,8.3-1.3,21.7-4.2,24.2-9.2" class="st2"></path>
      <path d="M96.4,44.8h-10.8v-.7c0-1.6,1.3-2.9,2.9-2.9h4.9c1.6,0,3,1.3,3,3v.6Z" class="st6"></path>
      <path d="M41.9,97.2v-27.5s-1.3-19.4,19.7-22.5l26.3-2.6s21.7-.3,38.8,7.7c0,0,14.5,6.8,13.8,29.1l-.3,20.9s-6.7,7.5-28.4,8c0,0-54.1,1.7-65.7-4.6,0,0-4.9-3-4.2-8.5Z" class="st6"></path>
      <path d="M94,41.1c1.6,0,3,1.3,3,3v.6c7.8.5,19.2,2.2,30.3,7.4,0,0,14.5,6.8,13.8,29.1l-.3,20.9s-4.3,4.7-16.8,6.9h0c-2.5,5-16,7.9-24.2,9.2-3.9.6-7.9,1-11.9,1.1-3.7.1-7.2.2-10.6.2-43.1,0-64.7-9.8-64.7-9.8-5.2-2.6-.3-4.3-.3-4.3l11.8-3.1c11.3-2.9,18.4-6.4,18.4-6.4v-26.5s-1.3-19.4,19.7-22.5l23.9-2.4v-.6c0-1.6,1.3-2.9,2.9-2.9h4.9M94,39.1h-4.9c-2.3,0-4.2,1.6-4.7,3.7l-22.3,2.2s0,0,0,0c-11.8,1.7-17,8.3-19.3,13.6-2.3,5.3-2.2,10.3-2.2,11v25.2c-2.4,1.1-8.5,3.6-16.9,5.7l-11.8,3.1c0,0,0,0-.1,0-.6.2-3.3,1.3-3.5,3.7-.2,2.5,2.6,3.8,3.5,4.3,0,0,0,0,0,0,.9.4,22.5,10,65.5,10s7.1,0,10.6-.2c4.2-.2,8.3-.5,12.2-1.2,13.8-2.2,22.2-5.4,25.2-9.4,12.4-2.4,16.9-7.2,17.1-7.4.3-.4.5-.8.5-1.3l.3-20.9c.7-23.3-14.3-30.7-14.9-31-8.5-4-18.6-6.6-29.3-7.5-.6-2.1-2.5-3.7-4.8-3.7h0Z"></path>
      <path d="M41.7,73.9s5.3-16.9,69.5,2.1c0,0-.3-18.2,21.4-18.3" class="st6"></path>
      <line y2="110.3" x2="111.8" y1="76" x1="111.2" class="st6"></line>
      <path d="M65.9,66.1s2-16.5,25.3-21.3" class="st6"></path>
    </g>
    <g>
      <path d="M41.9,96.2s-7.1,3.5-18.4,6.4l-11.8,3.1s-4.9,1.7.3,4.3c0,0,25.1,11.4,75.2,9.6,4-.1,8-.5,11.9-1.1,8.3-1.3,21.7-4.2,24.2-9.2" class="st4"></path>
      <path d="M96.4,44.8h-10.8v-.7c0-1.6,1.3-2.9,2.9-2.9h4.9c1.6,0,3,1.3,3,3v.6Z" class="st4"></path>
      <path d="M41.9,97.2v-27.5s-1.3-19.4,19.7-22.5l26.3-2.6s21.7-.3,38.8,7.7c0,0,14.5,6.8,13.8,29.1l-.3,20.9s-6.7,7.5-28.4,8c0,0-54.1,1.7-65.7-4.6,0,0-4.9-3-4.2-8.5Z" class="st4"></path>
      <g>
        <path d="M77.3,120.6c-42.8,0-64.9-9.8-65.1-9.9-.8-.4-3.1-1.5-3-3.3.1-1.8,2.3-2.6,2.8-2.8l11.9-3.2c9.3-2.4,15.8-5.2,17.7-6v-25.9c0-.1-1.1-20.3,20.6-23.5l23.1-2.3c.1-2,1.8-3.6,3.9-3.6h4.9c2.1,0,3.8,1.6,4,3.6,10.9.9,21.2,3.4,29.7,7.5.6.3,15.1,7.3,14.4,30.1l-.3,20.9c0,.2,0,.5-.3.7-.2.2-4.5,4.9-16.9,7.2-3.1,4.9-15.1,7.8-24.7,9.3-3.8.6-7.9,1-12,1.2-3.6.1-7.1.2-10.6.2h0Z" class="st4"></path>
        <path d="M94,41.1c1.6,0,3,1.3,3,3v.6c7.8.5,19.2,2.2,30.3,7.4,0,0,14.5,6.8,13.8,29.1l-.3,20.9s-4.3,4.7-16.8,6.9h0c-2.5,5-16,7.9-24.2,9.2-3.9.6-7.9,1-11.9,1.1-3.7.1-7.2.2-10.6.2-43.1,0-64.7-9.8-64.7-9.8-5.2-2.6-.3-4.3-.3-4.3l11.8-3.1c11.3-2.9,18.4-6.4,18.4-6.4v-26.5s-1.3-19.4,19.7-22.5l23.9-2.4v-.6c0-1.6,1.3-2.9,2.9-2.9h4.9M94,39.1h-4.9c-2.3,0-4.2,1.6-4.7,3.7l-22.3,2.2s0,0,0,0c-11.8,1.7-17,8.3-19.3,13.6-2.3,5.3-2.2,10.3-2.2,11v25.2c-2.4,1.1-8.5,3.6-16.9,5.7l-11.8,3.1c0,0,0,0-.1,0-.6.2-3.3,1.3-3.5,3.7-.2,2.5,2.6,3.8,3.5,4.3,0,0,0,0,0,0,.9.4,22.5,10,65.5,10s7.1,0,10.6-.2c4.2-.2,8.3-.5,12.2-1.2,13.8-2.2,22.2-5.4,25.2-9.4,12.4-2.4,16.9-7.2,17.1-7.4.3-.4.5-.8.5-1.3l.3-20.9c.7-23.3-14.3-30.7-14.9-31-8.5-4-18.6-6.6-29.3-7.5-.6-2.1-2.5-3.7-4.8-3.7h0Z" class="st4"></path>
      </g>
      <path d="M41.7,73.9s5.3-16.9,69.5,2.1c0,0-.3-18.2,21.4-18.3" class="st4"></path>
      <line y2="110.3" x2="111.8" y1="76" x1="111.2" class="st4"></line>
      <path d="M65.9,66.1s2-16.5,25.3-21.3" class="st4"></path>
    </g>
  </g>
</svg>