<svg viewBox="0 0 150.1 150.1" version="1.1" xmlns="http://www.w3.org/2000/svg" id="ICONS">
  
  <defs>
    <style>
      .st0, .st1, .st2, .st3, .st4, .st5 {
        fill: none;
      }

      .st1, .st2, .st3, .st4 {
        stroke: #221f20;
      }

      .st1, .st3, .st4, .st5 {
        stroke-linecap: round;
      }

      .st1, .st5 {
        stroke-miterlimit: 10;
        stroke-width: .7px;
      }

      .st2 {
        stroke-width: .7px;
      }

      .st3 {
        stroke-dasharray: 0 0 0 0 0 3;
      }

      .st3, .st4 {
        stroke-linejoin: round;
      }

      .st4 {
        stroke-width: 1.2px;
      }

      .st6 {
        fill: #221f20;
      }

      .st5 {
        stroke: #000201;
      }
    </style>
  </defs>
  <g>
    <path d="M46,114.6c-13.6,0-19.3-2.1-21.7-3.7-1-.7-1.6-1.8-1.8-2.9l-1.6-12.4c-.3-2.5,0-4.3,1-5.5.9-1.1,2-1.2,2.2-1.2l2.1-.3c1.7-9.4,8.8-35.3,36.8-42v-.3c0-.3-.1-.8.3-1.4.6-.9,1.8-1.5,3.8-1.7.6,0,1.1-.1,1.5-.2h0s.3,0,.3,0c0,0,0,0,0,0l1.9-.2c2-.2,3.3,0,4.1.7.5.5.6,1,.7,1.3v.3c.2,0,.5,0,.7,0,28.3,0,41.4,23,45.4,31.7l2.2-.3c.1,0,1.2-.2,2.3.6,1.3.9,2.1,2.6,2.4,5.1l1.6,12.5c.1,1.2-.2,2.4-1,3.3-2.9,3.4-13.5,9.8-51.5,14.4,0,0,0,0,0,0-13.7,1.8-24,2.4-31.7,2.4ZM65.7,46.2l.2,1.2c0,.7-.4,1.3-1,1.5-27.6,6-34.4,30.7-36.1,41.1,0,.6-.6,1-1.2,1.1l-3.2.4c-.4,0-1.2.9-.8,3.7l1.6,12.5c0,.4.3.8.7,1.1,2.7,1.9,13.2,5.8,51.5.8,0,0,0,0,0,0,38.4-4.7,47.5-11,49.7-13.5.3-.3.4-.8.4-1.2l-1.6-12.5c-.4-2.9-1.4-3.4-1.7-3.4l-3.2.4c-.6,0-1.2-.2-1.4-.8-4.2-9.6-16.9-31.9-45.1-30.9-.7,0-1.3-.5-1.4-1.2l-.2-1.2c-.2,0-.8-.1-1.8,0-.6,0-1.1.1-1.5.2h0s-.3,0-.3,0c0,0,0,0,0,0l-1.9.2c-1.1.1-1.6.3-1.8.5ZM65.6,45.7s0,0,0,0c0,0,0,0,0,0ZM73,44.7h0s0,0,0,0Z" class="st6"></path>
    <path d="M47.6,116.3c-13.6,0-19.3-2.1-21.7-3.7-1-.7-1.6-1.8-1.8-2.9l-1.6-12.4c-.3-2.5,0-4.3,1-5.5.9-1.1,2-1.2,2.2-1.2l2.1-.3c1.7-9.4,8.8-35.3,36.8-42v-.3c0-.3-.1-.8.3-1.4.6-.9,1.8-1.5,3.8-1.7.6,0,1.1-.1,1.5-.2h0s.3,0,.3,0c0,0,0,0,0,0l1.9-.2c2-.2,3.3,0,4.1.7.5.5.6,1,.7,1.3v.3c.2,0,.5,0,.7,0,28.3,0,41.4,23,45.4,31.7l2.2-.3c.1,0,1.2-.2,2.3.6,1.3.9,2.1,2.6,2.4,5.1l1.6,12.5c.1,1.2-.2,2.4-1,3.3-2.9,3.4-13.5,9.8-51.5,14.4,0,0,0,0,0,0-13.7,1.8-24,2.4-31.7,2.4ZM67.4,47.9l.2,1.2c0,.7-.4,1.3-1,1.5-27.6,6-34.4,30.7-36.1,41.1,0,.6-.6,1-1.2,1.1l-3.2.4c-.4,0-1.2.9-.8,3.7l1.6,12.5c0,.4.3.8.7,1.1,2.7,1.9,13.2,5.8,51.5.8,0,0,0,0,0,0,38.4-4.7,47.5-11,49.7-13.5.3-.3.4-.8.4-1.2l-1.6-12.5c-.4-2.9-1.4-3.4-1.7-3.4l-3.2.4c-.6,0-1.2-.2-1.4-.8-4.2-9.6-16.9-31.9-45.1-30.9-.7,0-1.3-.5-1.4-1.2l-.2-1.2c-.2,0-.8-.1-1.8,0-.6,0-1.1.1-1.5.2h0s-.3,0-.3,0c0,0,0,0,0,0l-1.9.2c-1.1.1-1.6.3-1.8.5ZM67.3,47.3s0,0,0,0c0,0,0,0,0,0ZM74.7,46.4h0s0,0,0,0Z" class="st6"></path>
    <path d="M69.2,44.2s-1.5.2,1.9-.2c3.3-.4,3.3.8,3.3.8,0,0,.2,1.6.2,1.6,29.5-1,42.6,23,46.3,31.7,0,0,3.2-.4,3.2-.4,0,0,2.6-.5,3.2,4.6l1.6,12.5c.1.8-.1,1.6-.7,2.2-2.4,2.8-12.1,9.3-50.6,13.9h0c-38.5,5-49.5,1.1-52.5-1s-1.1-1.2-1.2-2l-1.6-12.5c-.6-5.1,2-5.2,2-5.2,0,0,3.2-.4,3.2-.4,1.5-9.4,8.3-35.9,37.1-42.2l-.2-1.6s-.3-1.2,3-1.6c3.3-.4,1.9-.2,1.9-.2" class="st2"></path>
  </g>
  <rect transform="translate(150.1 0) rotate(90)" height="129.6" width="129.6" y="10.2" x="10.2" class="st0"></rect>
  <g>
    <g>
      <line y2="39.5" x2="46.3" y1="39.5" x1="43.9" class="st5"></line>
      <line y2="39.5" x2="41.5" y1="39.5" x1="39" class="st5"></line>
    </g>
    <g>
      <line y2="35.9" x2="42.7" y1="38.3" x1="42.7" class="st5"></line>
      <line y2="40.7" x2="42.7" y1="43.1" x1="42.7" class="st5"></line>
    </g>
  </g>
  <path d="M74.8,91.5s-11.5,1.8-31.7,2.9c-19.4,1-17.6-3.5-17.6-3.5l1.7-1.4-3.2.4s-2.6.1-2,5.2l1.5,12.4c0,.8.5,1.5,1.2,2,3,2.1,13.9,6,52.4,1.1h-.4c38.5-4.5,48.2-11,50.6-13.8s.8-1.4.7-2.2l-1.5-12.4c-.6-5.1-3.2-4.6-3.2-4.6l-3.2.4,2,.9s2.8,3.9-16.2,7.7c-19.8,3.9-31.4,4.9-31.4,4.9l-5.5-44.8c39.9-4.9,52.4,34.4,52.4,34.4l-6.3,3.2s-8.9-34.4-41.9-38h.8s-.2-1.6-.2-1.6c0,0,0-1.2-3.3-.8-3.3.4-1.9.2-1.9.2h.4s1.4-.2-1.9.2-3,1.6-3,1.6l.2,1.6.8-.2c-31.1,11.5-31.4,47-31.4,47l-6.9-1.6s2.6-41.2,42.5-46.1" class="st4"></path>
  <path d="M134.8,85.1l1.8,13.1s.3,5.7-5,8c-5.2,2.3-13.5,6.1-13.5,6.1" class="st3"></path>
  <path d="M22.1,83.1s2.4-12.1,10.8-22.8" class="st1"></path>
  <circle r=".4" cy="58.3" cx="34.2" class="st6"></circle>
</svg>